<svg width="100" height="100" xmlns="http://www.w3.org/2000/svg">

 <g>
  <title>background</title>
  <rect fill="none" id="canvas_background" height="102" width="102" y="-1" x="-1"/>
 </g>
 <g>
  <title>Layer 1</title>
  <path stroke="null" id="svg_1" d="m75.695508,0.476859c-0.704884,0 -1.342636,0.29504 -1.745427,0.87669l-26.114268,37.832534c-0.167829,0.244461 -0.276918,0.581649 -0.335659,0.87669c-0.553836,2.950399 0.503488,6.178976 3.088063,9.306399c4.220912,5.108405 11.790021,9.104086 17.18574,9.104086c0.612577,0 1.199981,-0.101157 1.745427,-0.202313c0.646143,-0.118015 1.166415,-0.497353 1.476899,-1.079003l28.262486,-53.545511c0.352443,-0.665948 0.318877,-1.508918 -0.067132,-2.158005c-0.386007,-0.649087 -1.124456,-1.011565 -1.87969,-1.011565l-21.616438,0zm-32.558921,42.418295c-14.433336,3.321306 -17.940971,15.021742 -21.347911,26.368129c-3.364981,11.203083 -6.54535,21.782368 -19.535352,26.165816c-0.998586,0.337188 -1.644729,1.315035 -1.476899,2.360318c0.167829,1.045284 1.099284,1.820817 2.148217,1.820817c41.999329,0 63.296892,-5.74906 65.722027,-36.955844c-0.310484,0.01686 -0.553836,0.134875 -0.872713,0.134875c-6.637657,0 -15.457095,-4.577332 -20.475197,-10.655152c-2.836317,-3.430892 -3.910426,-6.62575 -4.162171,-9.238961z"/>
 </g>
</svg>