<svg width="100" height="104" xmlns="http://www.w3.org/2000/svg">

 <g>
  <title>background</title>
  <rect fill="none" id="canvas_background" height="106" width="102" y="-1" x="-1"/>
 </g>
 <g>
  <title>Layer 1</title>
  <path stroke="null" id="svg_1" d="m66.521956,0.701873c-2.017504,0.130696 -3.765344,1.353626 -4.454491,3.13668c-0.699137,1.773719 -0.199753,3.771485 1.258443,5.078435l16.699353,15.758085l-28.36493,0c-16.659403,0 -29.533485,3.939522 -38.272681,11.277113c-8.739196,7.337593 -12.864095,17.85854 -12.864095,29.350366c0,21.788727 8.309726,35.773092 8.309726,35.773092c1.368308,2.305834 4.484455,3.146015 6.951405,1.867072c2.466951,-1.278943 3.365838,-4.191575 1.99753,-6.497409c0,0 -7.031307,-11.566509 -7.031307,-31.142755c0,-9.438048 3.126134,-16.822314 9.508244,-22.180811c6.38211,-5.358494 16.469637,-8.887261 31.401176,-8.887261l28.36493,0l-16.699353,15.758085c-1.987543,1.895078 -1.947593,4.938404 0.079901,6.796141c2.027494,1.857737 5.283467,1.820395 7.27101,-0.074683l25.248783,-23.898517l3.595555,-3.360729l-3.595555,-3.360729l-25.248783,-23.898517c-0.958815,-0.942871 -2.287172,-1.484323 -3.675456,-1.493657c-0.159802,-0.009335 -0.319605,-0.009335 -0.479407,0z"/>
 </g>
</svg>