<svg width="100" height="100" xmlns="http://www.w3.org/2000/svg">

 <g>
  <title>background</title>
  <rect fill="none" id="canvas_background" height="102" width="102" y="-1" x="-1"/>
 </g>
 <g>
  <title>Layer 1</title>
  <path stroke="null" id="svg_1" d="m45.401464,35.530314c2.876647,-0.958843 7.153337,-1.438296 12.830088,-1.438351c9.703996,0.000055 18.161489,2.847986 25.372504,8.543802c7.210831,5.69591 10.816293,12.85889 10.816395,21.488955c-0.000102,6.980815 -2.867212,13.721878 -8.601335,20.223209c-5.734315,6.501347 -13.165785,11.593101 -22.294435,15.275282l-6.098605,-10.125988c17.566971,-7.019141 26.35049,-15.188964 26.35058,-24.509492c-0.00009,-3.912283 -1.227483,-7.508158 -3.682177,-10.787633c-2.454871,-3.279396 -5.657596,-5.571164 -9.608181,-6.875314c-5.024713,14.65203 -11.545227,25.295812 -19.561568,31.931383c0.651995,2.186302 1.630071,4.334239 2.934238,6.44381l-10.471193,4.487653l-1.668488,-4.257516c-5.13975,3.298618 -10.873967,4.947927 -17.202672,4.947923c-5.331513,0.000004 -9.828751,-1.831493 -13.491728,-5.494496c-3.663014,-3.662991 -5.494512,-8.352007 -5.494499,-14.067068c-0.000013,-7.441038 2.656138,-14.153335 7.968462,-20.136907c5.312281,-5.983493 12.398548,-10.451964 21.258819,-13.405427c-0.076754,-2.608152 -0.115108,-6.616352 -0.115069,-12.024612l-22.610869,2.704099l-1.265748,-10.58626l23.991686,-2.876701l0.863012,-14.441039l11.276669,0.690408c-0.498683,2.838433 -0.958957,6.923345 -1.380818,12.254747l34.750548,-4.14245l1.495887,10.701328l-36.591641,4.71779l0.230137,10.758864zm14.383508,9.780782c-0.537052,-0.076664 -1.419239,-0.115021 -2.646568,-0.115069c-3.874016,0.000047 -7.556189,0.345253 -11.046532,1.035613c0.651999,8.476718 1.361585,15.30408 2.128762,20.482113c3.873898,-3.950641 7.728672,-11.084854 11.564339,-21.402657zm-20.999919,29.802625c-1.841132,-10.049249 -2.934277,-18.890304 -3.279439,-26.523185c-5.523305,1.994554 -10.126021,5.024678 -13.808165,9.090375c-3.682203,4.065768 -5.52329,8.342459 -5.523266,12.830088c-0.000024,2.684938 0.92052,4.890407 2.761633,6.616411c1.84106,1.726032 4.219131,2.589044 7.134218,2.589032c3.643784,0.000012 7.882121,-1.534229 12.715019,-4.602722z"/>
 </g>
</svg>