<svg width="100" height="100" xmlns="http://www.w3.org/2000/svg">
 <g>
  <title>background</title>
  <rect x="-1" y="-1" width="102" height="102" id="canvas_background" fill="none"/>
 </g>

 <g>
  <title>Layer 1</title>
  <path stroke="black" d="m46.074293,36.230086c2.676406,-0.892095 6.655395,-1.33817 11.936985,-1.338226c9.028503,0.000056 16.897265,2.649741 23.606325,7.949064c6.708883,5.299417 10.063366,11.963789 10.063459,19.993109c-0.000093,6.494884 -2.667623,12.766697 -8.00259,18.815468c-5.335153,6.04879 -12.249317,10.786102 -20.74252,14.211965l-5.674075,-9.421118c16.34413,-6.530536 24.516227,-14.131653 24.516311,-22.80338c-0.000084,-3.639945 -1.142044,-6.985515 -3.425863,-10.036701c-2.283986,-3.05112 -5.263773,-5.18336 -8.939353,-6.396728c-4.674948,13.632099 -10.741564,23.534973 -18.199885,29.70864c0.606605,2.034111 1.516601,4.032533 2.729987,5.995255l-9.742298,4.175264l-1.552337,-3.961153c-4.781971,3.069002 -10.117031,4.603504 -16.005198,4.603504c-4.960383,0 -9.144569,-1.704009 -12.552559,-5.112027c-3.408036,-3.408009 -5.112045,-7.770625 -5.112027,-13.087858c-0.000019,-6.923068 2.471246,-13.168114 7.413774,-18.735166c4.942491,-5.566987 11.535484,-9.724406 19.778989,-12.472275c-0.071417,-2.426596 -0.107097,-6.155785 -0.10706,-11.187575l-21.036923,2.515867l-1.177641,-9.849348l22.321624,-2.676462l0.802936,-13.435787l10.491699,0.642341c-0.463967,2.640856 -0.892207,6.441414 -1.284701,11.401694l32.331557,-3.854093l1.391761,9.956408l-34.044489,4.389384l0.214111,10.009934zm13.382271,9.099947c-0.499666,-0.071333 -1.320446,-0.107013 -2.462342,-0.10706c-3.604339,0.000037 -7.030202,0.321217 -10.277579,0.963521c0.606614,7.886654 1.266809,14.23876 1.980577,19.056346c3.604237,-3.675635 7.190685,-10.313231 10.759344,-19.912807zm-19.538111,27.728054c-1.712969,-9.34972 -2.730015,-17.575342 -3.051158,-24.676896c-5.138822,1.855709 -9.421146,4.674902 -12.846971,8.457588c-3.425881,3.782751 -5.138813,7.76174 -5.138794,11.936985c-0.000019,2.498041 0.856442,4.549988 2.569402,6.15584c1.712903,1.605881 3.925436,2.408816 6.637596,2.408807c3.390145,0.000009 7.333444,-1.427432 11.829925,-4.282324z" id="svg_1" stroke-width="6"/>
 </g>
</svg>