<svg width="100" height="94" xmlns="http://www.w3.org/2000/svg">

 <g>
  <title>background</title>
  <rect fill="none" id="canvas_background" height="96" width="102" y="-1" x="-1"/>
 </g>
 <g>
  <title>Layer 1</title>
  <path stroke="null" id="svg_1" d="m33.444267,0.582918c-1.349427,0.042165 -2.618294,0.531284 -3.544767,1.349291l-25.618997,21.453725l-3.705893,3.035904l3.705893,3.035904l25.618997,21.453725c1.238655,1.290259 3.242657,1.872142 5.166094,1.501087c1.933509,-0.371055 3.433995,-1.627584 3.877091,-3.246733c0.443096,-1.610714 -0.251761,-3.288895 -1.792525,-4.326163l-16.837643,-14.10009l27.391381,0c15.05519,0 25.306815,3.187701 31.741776,8.028281c6.434961,4.840582 9.50642,11.511137 9.50642,20.036969c0,17.70101 -6.928408,28.132715 -6.928408,28.132715c-1.379639,2.082968 -0.473308,4.714086 2.014072,5.869415c2.48738,1.15533 5.629332,0.396355 7.008971,-1.686614c0,0 8.217414,-12.649602 8.217414,-32.315516c0,-10.381107 -4.159058,-19.885173 -12.970624,-26.513566c-8.811566,-6.62839 -21.79226,-10.187146 -38.589621,-10.187146l-27.391381,0l16.837643,-14.10009c1.530695,-1.239662 1.993933,-3.128669 1.168162,-4.773115c-0.815699,-1.636016 -2.749208,-2.690149 -4.874054,-2.647984z"/>
 </g>
</svg>